<?xml version="1.0" standalone="no"?>
<!DOCTYPE svg PUBLIC "-//W3C//DTD SVG 20010904//EN"
 "http://www.w3.org/TR/2001/REC-SVG-20010904/DTD/svg10.dtd">
<svg version="1.0" xmlns="http://www.w3.org/2000/svg"
 width="520.000000pt" height="521.000000pt" viewBox="0 0 520.000000 521.000000"
 preserveAspectRatio="xMidYMid meet">

<g transform="translate(0.000000,521.000000) scale(0.100000,-0.100000)"
fill="#000000" stroke="none">
<path d="M2955 4640 c-79 -9 -240 -80 -308 -137 -16 -13 -32 -23 -35 -23 -11
0 -103 -90 -158 -155 -70 -83 -152 -211 -213 -334 -28 -57 -51 -108 -51 -112
0 -5 -9 -28 -19 -52 -55 -119 -172 -537 -200 -712 -5 -33 -17 -96 -25 -140 -8
-44 -22 -133 -30 -198 -8 -64 -18 -122 -22 -129 -4 -6 -6 -42 -5 -79 2 -64 1
-70 -21 -80 -36 -16 -73 3 -84 43 -4 18 -9 209 -10 423 0 215 -2 395 -3 401
-2 15 -46 34 -81 34 -31 0 -60 -22 -60 -46 0 -17 -87 -254 -137 -374 -38 -92
-46 -109 -92 -214 -17 -38 -31 -73 -31 -77 0 -5 -23 -56 -51 -114 l-50 -104
-42 -6 c-23 -3 -85 -9 -137 -14 -133 -13 -288 -39 -400 -68 -52 -13 -113 -28
-134 -34 -52 -13 -172 -66 -211 -93 -83 -57 -131 -123 -167 -227 -33 -96 -31
-260 3 -347 35 -87 96 -149 156 -158 139 -21 274 44 451 216 145 140 338 400
456 611 31 57 41 68 69 73 59 10 394 29 410 23 10 -4 23 -39 37 -104 27 -120
73 -262 103 -314 23 -40 50 -51 61 -23 8 22 9 20 -24 34 -16 7 -30 18 -30 24
0 18 -24 66 -32 66 -5 0 -8 27 -8 60 0 32 -4 69 -9 82 -5 13 -14 56 -20 97
-13 87 -7 101 50 101 l39 0 0 -47 c0 -74 41 -225 74 -272 37 -53 52 -61 119
-61 65 0 107 24 180 103 l48 52 -5 -65 c-3 -36 -9 -176 -12 -312 -6 -245 -6
-249 21 -363 16 -66 42 -145 61 -182 l34 -66 -22 -71 c-26 -84 -30 -209 -9
-276 24 -74 95 -161 176 -216 50 -33 155 -80 235 -105 110 -34 264 -32 377 4
306 97 533 362 671 782 59 179 66 209 123 515 6 30 14 98 20 150 5 52 13 138
19 190 5 52 13 144 16 203 6 86 10 110 23 115 9 3 33 16 53 29 21 13 42 23 48
23 5 0 34 11 64 25 30 14 60 25 66 25 7 0 26 7 43 15 92 42 376 121 402 111
29 -11 15 3 -19 19 -30 14 -40 14 -92 1 -96 -23 -188 -52 -222 -70 -17 -9 -36
-16 -42 -16 -11 0 -94 -37 -207 -92 -33 -16 -72 -28 -85 -26 -27 4 -27 -10
-14 335 l8 231 -25 17 c-23 15 -28 14 -73 -3 -118 -44 -268 -169 -367 -304
-68 -93 -105 -165 -129 -251 -26 -95 -26 -133 -1 -159 34 -33 80 -18 140 45
59 61 118 130 153 176 14 18 35 45 48 60 38 45 110 141 132 177 12 19 25 34
29 34 12 0 22 -213 15 -313 -5 -63 -12 -94 -23 -104 -24 -22 -132 -83 -146
-83 -6 0 -20 -9 -30 -20 -10 -11 -23 -20 -30 -20 -6 0 -39 -18 -73 -40 -33
-22 -65 -40 -70 -40 -5 0 -17 -9 -27 -20 -10 -11 -22 -20 -26 -20 -4 0 -31
-16 -61 -35 -29 -20 -58 -34 -64 -33 -7 2 -27 23 -46 48 -40 52 -132 119 -167
119 -27 1 -84 -38 -108 -75 -23 -36 -13 -37 37 -4 63 42 103 40 145 -6 32 -35
45 -70 45 -124 0 -22 -12 -37 -57 -71 -32 -24 -62 -47 -68 -52 -5 -4 -41 -31
-80 -59 -65 -48 -118 -89 -155 -122 -247 -214 -405 -378 -467 -483 -14 -24
-31 -43 -38 -43 -15 0 -51 88 -66 160 -42 204 -48 352 -23 590 8 80 19 186 24
235 13 122 69 391 121 577 21 72 20 72 159 168 28 19 90 64 138 100 119 88
163 117 192 125 62 16 132 49 141 66 8 15 5 20 -16 25 -25 6 -33 19 -16 26 21
7 208 189 274 266 255 297 322 546 195 732 -40 59 -128 132 -150 126 -10 -2
-18 1 -18 9 0 21 -28 37 -67 37 -21 0 -32 3 -24 6 26 9 -74 45 -149 53 -87 9
-132 9 -215 -1z m315 -60 c210 -71 316 -201 312 -385 -5 -205 -207 -505 -529
-783 -70 -61 -93 -74 -155 -93 -40 -11 -91 -27 -113 -35 -62 -22 -140 -41
-153 -36 -26 8 -8 71 80 291 89 222 187 398 248 443 55 40 23 55 -33 16 -112
-78 -115 -82 -225 -338 -91 -213 -100 -235 -110 -270 -19 -64 -60 -172 -69
-179 -4 -5 -35 -18 -68 -31 -73 -28 -85 -37 -85 -61 0 -12 11 -21 36 -28 20
-6 45 -18 55 -27 19 -17 25 -59 11 -80 -9 -15 -100 -84 -110 -84 -4 0 -20 -12
-37 -26 -16 -14 -43 -32 -60 -40 -16 -7 -59 -32 -94 -54 -34 -22 -65 -40 -68
-40 -3 0 -18 -9 -34 -21 -16 -11 -43 -24 -59 -29 -27 -8 -31 -6 -36 16 -12 45
54 451 100 619 8 28 21 77 29 110 65 254 208 608 308 760 100 153 235 282 359
345 140 72 355 88 500 40z m-1576 -1316 c3 -9 6 -100 6 -202 0 -103 5 -259 12
-347 6 -88 12 -176 12 -195 l1 -35 -75 -12 c-41 -6 -132 -12 -202 -12 -111 -1
-128 1 -128 15 0 9 20 57 44 107 86 180 126 268 126 277 0 5 9 24 20 42 11 18
20 39 20 46 0 7 9 31 19 55 30 65 81 200 81 215 0 20 31 62 45 62 7 0 16 -7
19 -16z m1046 -105 c-64 -57 -141 -109 -163 -109 -16 0 -18 5 -12 28 11 45 31
68 73 80 22 7 53 19 69 27 15 8 39 15 53 15 23 -1 22 -3 -20 -41z m1204 -97
c13 -47 -5 -96 -71 -194 -58 -87 -69 -101 -157 -209 -107 -131 -131 -145 -171
-105 -31 31 -32 66 -4 149 47 140 154 278 281 361 69 46 108 45 122 -2z
m-1504 -173 c0 -6 -11 -54 -25 -107 -26 -106 -69 -325 -80 -412 -9 -64 -42
-127 -92 -171 -139 -122 -252 -38 -270 202 l-6 76 32 22 c40 29 40 60 0 101
l-32 31 36 25 c20 13 47 29 59 35 60 27 325 186 333 199 8 13 45 13 45 -1z
m1511 -411 c6 -102 -25 -446 -57 -628 -58 -331 -135 -588 -230 -767 -51 -96
-54 -101 -104 -173 -91 -134 -209 -227 -354 -282 -78 -30 -87 -31 -241 -31
-151 0 -164 2 -222 27 -34 14 -67 26 -73 26 -12 0 -105 66 -136 97 -104 104
-135 246 -88 404 16 52 27 59 54 34 28 -25 131 -39 208 -27 90 13 177 65 272
162 41 42 80 83 85 91 6 8 28 39 51 69 133 180 228 383 266 570 l23 113 88 59
c49 32 92 58 96 58 5 0 14 6 20 14 7 8 29 22 49 32 20 9 48 26 62 36 38 30
203 126 218 127 6 1 12 -5 13 -11z m-2731 -103 c-5 -13 -30 -62 -56 -107 -41
-73 -79 -132 -188 -293 -47 -69 -169 -202 -258 -280 -77 -68 -205 -133 -279
-142 -154 -18 -259 133 -247 359 5 97 42 189 98 246 33 32 205 122 235 122 8
0 41 9 72 20 32 11 90 26 128 34 39 8 102 21 142 30 69 15 218 32 315 35 47 1
47 1 38 -24z m2094 -353 c-13 -109 -111 -339 -207 -489 -135 -210 -319 -354
-457 -357 -46 -1 -63 4 -100 29 -27 18 -46 40 -48 53 -2 12 13 49 34 83 111
183 375 455 624 642 41 31 81 62 89 69 24 21 55 37 64 31 4 -3 5 -30 1 -61z"/>
<path d="M4049 3501 c-7 -23 -30 -62 -51 -86 -66 -75 -161 -84 -246 -24 -31
22 -50 29 -67 25 -19 -5 -23 -11 -17 -24 24 -63 121 -122 201 -122 50 0 138
46 173 90 17 21 33 60 40 93 11 50 10 59 -4 73 -15 15 -17 13 -29 -25z"/>
<path d="M3161 3018 c-11 -11 -65 -109 -120 -217 -96 -190 -122 -237 -206
-377 -38 -63 -104 -134 -125 -134 -6 0 -19 9 -30 20 -16 16 -20 33 -20 91 0
101 56 339 116 497 25 66 30 97 15 106 -28 18 -57 -29 -105 -171 -104 -305
-126 -571 -51 -605 40 -18 89 -2 121 40 40 50 94 136 94 149 0 6 7 16 15 23 9
7 25 32 36 54 11 23 47 86 80 141 33 55 62 107 66 115 10 25 35 50 51 50 12 0
14 -19 8 -127 -8 -156 1 -212 40 -247 52 -47 72 -45 121 8 26 29 43 58 43 72
0 25 0 25 -46 -11 -60 -45 -79 -45 -95 2 -18 57 -6 171 46 410 12 56 12 78 4
97 -16 34 -35 39 -58 14z"/>
<path d="M4768 2687 c3 -41 -1 -66 -17 -102 -25 -57 -26 -61 -4 -44 9 8 29 40
44 73 30 63 28 89 -8 113 -19 13 -20 11 -15 -40z"/>
</g>
</svg>
