<?xml version="1.0" encoding="UTF-8"?>
<!DOCTYPE svg PUBLIC "-//W3C//DTD SVG 1.1//EN" "http://www.w3.org/Graphics/SVG/1.1/DTD/svg11.dtd">
<svg xmlns="http://www.w3.org/2000/svg" version="1.1" width="520px" height="521px" style="shape-rendering:geometricPrecision; text-rendering:geometricPrecision; image-rendering:optimizeQuality; fill-rule:evenodd; clip-rule:evenodd" xmlns:xlink="http://www.w3.org/1999/xlink">
<g><path style="opacity:1" fill="#fff" d="M 294.5,49.5 C 320.984,46.4928 343.15,54.8261 361,74.5C 370.604,89.0821 371.938,104.415 365,120.5C 359.46,133.236 352.127,144.903 343,155.5C 335.333,163.167 327.667,170.833 320,178.5C 320.661,183.83 318.828,187.997 314.5,191C 307.29,194.634 299.957,197.967 292.5,201C 287.883,204.454 283.549,208.121 279.5,212C 281.319,214.489 283.152,216.989 285,219.5C 285.167,220.5 285.333,221.5 285.5,222.5C 279.925,237.79 275.425,253.457 272,269.5C 271.333,274.167 271.333,278.833 272,283.5C 276.461,278.613 280.294,273.28 283.5,267.5C 292.288,251.29 300.788,234.957 309,218.5C 315.008,209.276 321.008,209.276 327,218.5C 327.667,221.5 327.667,224.5 327,227.5C 323.754,239.972 321.921,252.639 321.5,265.5C 324.852,264.992 327.852,263.658 330.5,261.5C 332.316,262.815 333.983,264.315 335.5,266C 336.167,266.667 336.833,266.667 337.5,266C 342.073,245.342 352.406,228.009 368.5,214C 374.359,209.308 380.359,204.808 386.5,200.5C 379.345,198.006 372.845,194.339 367,189.5C 359.075,182.145 359.909,176.145 369.5,171.5C 375.792,177.319 383.125,179.819 391.5,179C 396.249,175.589 399.416,171.089 401,165.5C 402.719,163.443 404.719,161.776 407,160.5C 411.674,162.675 414.174,166.342 414.5,171.5C 413.637,175.589 412.47,179.589 411,183.5C 407.487,187.678 403.987,191.845 400.5,196C 404.023,198.524 406.856,201.691 409,205.5C 409.064,221.496 408.898,237.496 408.5,253.5C 418.737,250.559 428.737,246.725 438.5,242C 444.767,240.492 450.767,238.492 456.5,236C 466.304,233.621 474.804,235.787 482,242.5C 487.835,250.065 487.835,257.732 482,265.5C 479.321,269.512 475.988,272.846 472,275.5C 469.284,274.285 467.451,272.285 466.5,269.5C 469.774,263.324 471.441,256.657 471.5,249.5C 449.371,253.656 428.204,260.656 408,270.5C 405.883,306.014 400.55,341.014 392,375.5C 384.529,405.273 369.696,430.773 347.5,452C 315.85,475.599 283.516,476.599 250.5,455C 231.057,439.201 225.723,419.534 234.5,396C 231.837,389.849 229.337,383.683 227,377.5C 225.504,371.53 224.171,365.53 223,359.5C 222.833,344.156 222.333,328.822 221.5,313.5C 217.403,316.693 212.736,318.36 207.5,318.5C 203.516,317.332 199.516,316.499 195.5,316C 197.604,317.836 197.938,320.002 196.5,322.5C 194.437,326.101 191.437,327.601 187.5,327C 182.346,322.512 178.846,317.012 177,310.5C 173.546,301.464 171.046,292.131 169.5,282.5C 156.408,282.563 143.408,283.563 130.5,285.5C 115.436,313.59 96.1022,338.423 72.5,360C 64.1001,367.367 54.4335,372.367 43.5,375C 27.2356,375.755 16.7356,368.255 12,352.5C 3.93999,317.776 16.44,294.276 49.5,282C 73.0055,275.061 97.0055,270.727 121.5,269C 122.025,268.308 122.692,267.808 123.5,267.5C 136.584,240.992 147.751,213.659 157,185.5C 160.489,176.334 166.656,173.667 175.5,177.5C 178.478,179.311 180.978,181.644 183,184.5C 183.167,205.508 183.667,226.508 184.5,247.5C 189.984,207.304 199.484,168.304 213,130.5C 221.474,109.41 233.641,90.5771 249.5,74C 263.055,62.8905 278.055,54.7238 294.5,49.5 Z M 296.5,64.5 C 312.365,62.5886 327.032,65.5886 340.5,73.5C 351.087,82.0329 354.92,93.0329 352,106.5C 347.711,121.313 340.544,134.646 330.5,146.5C 319.285,158.883 307.285,170.383 294.5,181C 286.32,183.962 277.987,186.462 269.5,188.5C 274.866,168.519 282.866,149.685 293.5,132C 296.323,128.677 299.323,125.51 302.5,122.5C 305.432,117.354 304.099,113.687 298.5,111.5C 287.34,115.832 278.84,123.165 273,133.5C 264.387,153.724 256.054,174.058 248,194.5C 241.187,196.881 235.52,200.881 231,206.5C 230.333,207.5 230.333,208.5 231,209.5C 233.531,212.888 236.698,215.221 240.5,216.5C 240.5,218.167 240.5,219.833 240.5,221.5C 228.264,228.537 216.097,235.871 204,243.5C 203.333,238.167 203.333,232.833 204,227.5C 206.556,216.941 208.556,206.274 210,195.5C 214.505,179.579 219.171,163.579 224,147.5C 230.823,127.857 240.323,109.524 252.5,92.5C 264.187,78.084 278.853,68.7506 296.5,64.5 Z M 161.5,216.5 C 162.818,219.258 163.485,222.424 163.5,226C 164.003,239.883 165.003,253.716 166.5,267.5C 157.779,267.196 149.112,267.529 140.5,268.5C 140.167,268 139.833,267.5 139.5,267C 147.775,250.613 155.108,233.779 161.5,216.5 Z M 386.5,217.5 C 388.344,218.204 388.844,219.537 388,221.5C 380.787,232.89 372.953,243.89 364.5,254.5C 362.672,257.013 360.339,258.679 357.5,259.5C 360.694,241.136 370.361,227.136 386.5,217.5 Z M 265.5,220.5 C 266.5,220.5 267.5,220.5 268.5,220.5C 260.406,240.333 255.073,260.999 252.5,282.5C 251.698,293.203 256.365,300.37 266.5,304C 269.419,304.552 272.086,303.885 274.5,302C 277.685,299.116 280.518,295.949 283,292.5C 289.86,281.431 296.694,270.431 303.5,259.5C 303.926,266.836 305.926,273.67 309.5,280C 307.172,283.653 304.839,287.319 302.5,291C 303.959,294.293 306.292,296.793 309.5,298.5C 312.329,297.253 314.995,295.753 317.5,294C 324.804,292.975 327.637,296.142 326,303.5C 296.221,323.941 269.554,347.941 246,375.5C 245.333,374.833 244.667,374.167 244,373.5C 241.37,361.403 240.203,349.07 240.5,336.5C 240.634,298.695 246.468,262.028 258,226.5C 260.688,224.636 263.188,222.636 265.5,220.5 Z M 231.5,241.5 C 232.5,241.5 233.5,241.5 234.5,241.5C 231.839,256.799 229.172,272.132 226.5,287.5C 223.225,293.628 218.391,297.628 212,299.5C 207.829,299.002 205.162,296.668 204,292.5C 202.803,286.871 202.47,281.204 203,275.5C 204.78,272.275 206.28,268.942 207.5,265.5C 207.558,262.911 206.892,260.577 205.5,258.5C 205.833,257.833 206.167,257.167 206.5,256.5C 215.66,252.631 223.993,247.631 231.5,241.5 Z M 387.5,243.5 C 388.5,243.5 389.5,243.5 390.5,243.5C 390.666,250.175 390.5,256.842 390,263.5C 374.931,272.225 360.098,281.392 345.5,291C 343.833,291.667 342.167,291.667 340.5,291C 338.333,287.5 335.5,284.667 332,282.5C 331.84,279.102 333.007,276.102 335.5,273.5C 336.325,272.614 337.325,272.281 338.5,272.5C 340.086,278.086 343.753,281.753 349.5,283.5C 352.387,281.889 355.387,280.556 358.5,279.5C 369.122,268.249 378.788,256.249 387.5,243.5 Z M 386.5,281.5 C 387.822,284.768 388.489,288.435 388.5,292.5C 386.766,330.3 379.266,366.634 366,401.5C 359.213,416.211 350.046,429.378 338.5,441C 321.62,454.116 302.62,458.449 281.5,454C 269.636,451.445 259.802,445.611 252,436.5C 247.631,428.123 246.298,419.123 248,409.5C 248.725,408.941 249.558,408.608 250.5,408.5C 263.009,412.063 275.009,410.896 286.5,405C 296.957,398.21 305.79,389.71 313,379.5C 324.974,363.542 334.307,346.209 341,327.5C 342.175,321.135 343.508,314.801 345,308.5C 358.2,298.456 372.033,289.456 386.5,281.5 Z M 107.5,286.5 C 109.167,286.5 110.833,286.5 112.5,286.5C 100.572,312.467 83.2389,334.3 60.5,352C 54.8304,356.168 48.4971,358.668 41.5,359.5C 33.5683,359.068 28.4016,355.068 26,347.5C 24,337.5 24,327.5 26,317.5C 29.1412,310.359 34.3078,305.192 41.5,302C 63.0786,294.577 85.0786,289.411 107.5,286.5 Z M 190.5,309.5 C 191.077,308.227 191.743,308.227 192.5,309.5C 192.03,310.463 191.363,310.463 190.5,309.5 Z M 320.5,324.5 C 321.833,324.5 323.167,324.5 324.5,324.5C 318.287,344.721 308.287,363.055 294.5,379.5C 286.62,388.686 276.787,394.353 265,396.5C 263.167,396.333 261.333,396.167 259.5,396C 257.59,395.592 256.59,394.425 256.5,392.5C 260.01,385.318 264.344,378.652 269.5,372.5C 285.287,355.042 302.287,339.042 320.5,324.5 Z"/></g>
<g><path style="opacity:1" fill="#fff" d="M 391.5,271.5 C 394.895,267.282 396.395,262.282 396,256.5C 396.969,246.075 396.469,235.741 394.5,225.5C 390.526,231.307 386.36,236.974 382,242.5C 381.833,242.167 381.667,241.833 381.5,241.5C 385.917,235.002 390.084,228.335 394,221.5C 394.546,218.101 394.213,214.768 393,211.5C 391.938,210.903 390.772,210.57 389.5,210.5C 384.94,212.113 380.607,214.28 376.5,217C 364.501,226.675 356.001,238.841 351,253.5C 350.333,257.833 350.333,262.167 351,266.5C 353.983,268.566 357.149,269.066 360.5,268C 357.968,270.447 355.634,273.114 353.5,276C 347.141,279.233 343.141,277.399 341.5,270.5C 347.808,242.374 363.475,221.208 388.5,207C 391.669,206.166 394.836,205.332 398,204.5C 399.711,204.439 401.044,205.106 402,206.5C 401.386,220.287 400.886,234.12 400.5,248C 400.833,253.833 401.167,259.667 401.5,265.5C 404.629,263.6 407.963,262.267 411.5,261.5C 408.438,264.119 404.938,266.119 401,267.5C 398.729,297.337 395.062,327.003 390,356.5C 385.313,376.561 378.647,395.894 370,414.5C 359.446,434.721 343.946,449.888 323.5,460C 312.238,464.519 300.571,466.186 288.5,465C 282.167,463.333 275.833,461.667 269.5,460C 256.562,455.281 246.395,447.115 239,435.5C 234.187,422.446 234.687,409.613 240.5,397C 234.676,385.968 230.843,374.134 229,361.5C 227.776,340.236 228.609,319.07 231.5,298C 231.167,297.167 230.833,296.333 230.5,295.5C 229.712,296.77 228.712,297.77 227.5,298.5C 222.171,309.31 213.505,313.81 201.5,312C 198.334,309.198 195.501,306.031 193,302.5C 190.175,293.374 188.508,284.041 188,274.5C 187.586,274.043 187.086,273.709 186.5,273.5C 184.224,274.213 181.891,274.713 179.5,275C 178.376,275.839 177.709,277.006 177.5,278.5C 179.397,292.146 182.397,305.48 186.5,318.5C 184.864,317.251 183.697,315.584 183,313.5C 178.629,301.478 175.462,289.145 173.5,276.5C 157.743,276.63 142.077,277.797 126.5,280C 114.71,302.455 100.543,323.289 84,342.5C 79.9765,346.76 75.4765,350.427 70.5,353.5C 64.5073,359.637 57.5073,364.471 49.5,368C 37.4532,372.258 27.6198,369.425 20,359.5C 12.2635,342.152 12.9301,325.152 22,308.5C 29.6772,298.837 39.5106,292.337 51.5,289C 75.9951,281.905 100.995,277.738 126.5,276.5C 133.022,260.791 139.855,245.125 147,229.5C 152.906,215.026 158.239,200.359 163,185.5C 167.066,182.935 171.233,182.935 175.5,185.5C 175.27,214.497 175.604,243.497 176.5,272.5C 180.5,272.5 184.5,272.5 188.5,272.5C 188.805,267.238 188.471,262.072 187.5,257C 188.967,255.902 189.801,254.402 190,252.5C 193.492,220.871 199.825,189.871 209,159.5C 216.794,131.574 229.96,106.574 248.5,84.5C 256.38,76.2227 265.38,69.3894 275.5,64C 302.019,52.8843 326.686,55.8843 349.5,73C 362.371,86.3406 365.537,101.841 359,119.5C 349.866,137.635 338.032,153.802 323.5,168C 317.276,173.6 310.943,179.1 304.5,184.5C 306.992,185.196 309.492,184.863 312,183.5C 313.257,183.85 313.591,184.517 313,185.5C 305.017,188.779 297.184,192.279 289.5,196C 278.207,205.646 266.207,214.313 253.5,222C 252.299,222.903 251.465,224.069 251,225.5C 238.635,267.265 232.968,309.931 234,353.5C 235.663,365.836 238.497,377.836 242.5,389.5C 243.675,389.719 244.675,389.386 245.5,388.5C 254.53,374.304 265.197,361.47 277.5,350C 294.728,334.451 312.895,319.951 332,306.5C 332.211,299.802 330.045,293.969 325.5,289C 322.298,287.517 318.964,287.183 315.5,288C 305.96,295.582 305.293,294.916 313.5,286C 317.136,284.101 320.803,284.101 324.5,286C 330.924,290.036 335.59,295.536 338.5,302.5C 355.463,290.851 373.129,280.517 391.5,271.5 Z M 296.5,64.5 C 278.853,68.7506 264.187,78.084 252.5,92.5C 240.323,109.524 230.823,127.857 224,147.5C 219.171,163.579 214.505,179.579 210,195.5C 208.556,206.274 206.556,216.941 204,227.5C 203.333,232.833 203.333,238.167 204,243.5C 216.097,235.871 228.264,228.537 240.5,221.5C 240.5,219.833 240.5,218.167 240.5,216.5C 236.698,215.221 233.531,212.888 231,209.5C 230.333,208.5 230.333,207.5 231,206.5C 235.52,200.881 241.187,196.881 248,194.5C 256.054,174.058 264.387,153.724 273,133.5C 278.84,123.165 287.34,115.832 298.5,111.5C 304.099,113.687 305.432,117.354 302.5,122.5C 299.323,125.51 296.323,128.677 293.5,132C 282.866,149.685 274.866,168.519 269.5,188.5C 277.987,186.462 286.32,183.962 294.5,181C 307.285,170.383 319.285,158.883 330.5,146.5C 340.544,134.646 347.711,121.313 352,106.5C 354.92,93.0329 351.087,82.0329 340.5,73.5C 327.032,65.5886 312.365,62.5886 296.5,64.5 Z M 161.5,216.5 C 155.108,233.779 147.775,250.613 139.5,267C 139.833,267.5 140.167,268 140.5,268.5C 149.112,267.529 157.779,267.196 166.5,267.5C 165.003,253.716 164.003,239.883 163.5,226C 163.485,222.424 162.818,219.258 161.5,216.5 Z M 386.5,217.5 C 370.361,227.136 360.694,241.136 357.5,259.5C 360.339,258.679 362.672,257.013 364.5,254.5C 372.953,243.89 380.787,232.89 388,221.5C 388.844,219.537 388.344,218.204 386.5,217.5 Z M 265.5,220.5 C 263.188,222.636 260.688,224.636 258,226.5C 246.468,262.028 240.634,298.695 240.5,336.5C 240.203,349.07 241.37,361.403 244,373.5C 244.667,374.167 245.333,374.833 246,375.5C 269.554,347.941 296.221,323.941 326,303.5C 327.637,296.142 324.804,292.975 317.5,294C 314.995,295.753 312.329,297.253 309.5,298.5C 306.292,296.793 303.959,294.293 302.5,291C 304.839,287.319 307.172,283.653 309.5,280C 305.926,273.67 303.926,266.836 303.5,259.5C 296.694,270.431 289.86,281.431 283,292.5C 280.518,295.949 277.685,299.116 274.5,302C 272.086,303.885 269.419,304.552 266.5,304C 256.365,300.37 251.698,293.203 252.5,282.5C 255.073,260.999 260.406,240.333 268.5,220.5C 267.5,220.5 266.5,220.5 265.5,220.5 Z M 231.5,241.5 C 223.993,247.631 215.66,252.631 206.5,256.5C 206.167,257.167 205.833,257.833 205.5,258.5C 206.892,260.577 207.558,262.911 207.5,265.5C 206.28,268.942 204.78,272.275 203,275.5C 202.47,281.204 202.803,286.871 204,292.5C 205.162,296.668 207.829,299.002 212,299.5C 218.391,297.628 223.225,293.628 226.5,287.5C 229.172,272.132 231.839,256.799 234.5,241.5C 233.5,241.5 232.5,241.5 231.5,241.5 Z M 387.5,243.5 C 378.788,256.249 369.122,268.249 358.5,279.5C 355.387,280.556 352.387,281.889 349.5,283.5C 343.753,281.753 340.086,278.086 338.5,272.5C 337.325,272.281 336.325,272.614 335.5,273.5C 333.007,276.102 331.84,279.102 332,282.5C 335.5,284.667 338.333,287.5 340.5,291C 342.167,291.667 343.833,291.667 345.5,291C 360.098,281.392 374.931,272.225 390,263.5C 390.5,256.842 390.666,250.175 390.5,243.5C 389.5,243.5 388.5,243.5 387.5,243.5 Z M 386.5,281.5 C 372.033,289.456 358.2,298.456 345,308.5C 343.508,314.801 342.175,321.135 341,327.5C 334.307,346.209 324.974,363.542 313,379.5C 305.79,389.71 296.957,398.21 286.5,405C 275.009,410.896 263.009,412.063 250.5,408.5C 249.558,408.608 248.725,408.941 248,409.5C 246.298,419.123 247.631,428.123 252,436.5C 259.802,445.611 269.636,451.445 281.5,454C 302.62,458.449 321.62,454.116 338.5,441C 350.046,429.378 359.213,416.211 366,401.5C 379.266,366.634 386.766,330.3 388.5,292.5C 388.489,288.435 387.822,284.768 386.5,281.5 Z M 107.5,286.5 C 85.0786,289.411 63.0786,294.577 41.5,302C 34.3078,305.192 29.1412,310.359 26,317.5C 24,327.5 24,337.5 26,347.5C 28.4016,355.068 33.5683,359.068 41.5,359.5C 48.4971,358.668 54.8304,356.168 60.5,352C 83.2389,334.3 100.572,312.467 112.5,286.5C 110.833,286.5 109.167,286.5 107.5,286.5 Z M 190.5,309.5 C 191.363,310.463 192.03,310.463 192.5,309.5C 191.743,308.227 191.077,308.227 190.5,309.5 Z M 320.5,324.5 C 302.287,339.042 285.287,355.042 269.5,372.5C 264.344,378.652 260.01,385.318 256.5,392.5C 256.59,394.425 257.59,395.592 259.5,396C 261.333,396.167 263.167,396.333 265,396.5C 276.787,394.353 286.62,388.686 294.5,379.5C 308.287,363.055 318.287,344.721 324.5,324.5C 323.167,324.5 321.833,324.5 320.5,324.5 Z"/></g>
<g><path style="opacity:0.201" fill="#fff" d="M 298.5,59.5 C 316.854,57.9994 333.188,62.8327 347.5,74C 359.872,88.4794 361.705,104.313 353,121.5C 338.492,147.676 319.325,169.843 295.5,188C 283.649,192.006 271.649,195.506 259.5,198.5C 265.734,173.693 275.568,150.359 289,128.5C 292.576,125.281 295.576,121.947 298,118.5C 291.504,122.087 285.504,126.421 280,131.5C 270.721,152.359 262.054,173.359 254,194.5C 253.503,196.81 253.337,199.143 253.5,201.5C 247.653,202.505 242.153,204.505 237,207.5C 236.251,208.635 236.417,209.635 237.5,210.5C 247.849,212.181 250.183,217.348 244.5,226C 231.442,233.809 218.442,241.809 205.5,250C 201.884,251.811 198.217,253.311 194.5,254.5C 199.07,203.99 212.237,155.99 234,110.5C 238.419,103.328 243.085,96.328 248,89.5C 257.477,77.7133 269.311,68.8799 283.5,63C 288.6,61.6758 293.6,60.5091 298.5,59.5 Z M 296.5,64.5 C 278.853,68.7506 264.187,78.084 252.5,92.5C 240.323,109.524 230.823,127.857 224,147.5C 219.171,163.579 214.505,179.579 210,195.5C 208.556,206.274 206.556,216.941 204,227.5C 203.333,232.833 203.333,238.167 204,243.5C 216.097,235.871 228.264,228.537 240.5,221.5C 240.5,219.833 240.5,218.167 240.5,216.5C 236.698,215.221 233.531,212.888 231,209.5C 230.333,208.5 230.333,207.5 231,206.5C 235.52,200.881 241.187,196.881 248,194.5C 256.054,174.058 264.387,153.724 273,133.5C 278.84,123.165 287.34,115.832 298.5,111.5C 304.099,113.687 305.432,117.354 302.5,122.5C 299.323,125.51 296.323,128.677 293.5,132C 282.866,149.685 274.866,168.519 269.5,188.5C 277.987,186.462 286.32,183.962 294.5,181C 307.285,170.383 319.285,158.883 330.5,146.5C 340.544,134.646 347.711,121.313 352,106.5C 354.92,93.0329 351.087,82.0329 340.5,73.5C 327.032,65.5886 312.365,62.5886 296.5,64.5 Z"/></g>
<g><path style="opacity:1" fill="#fff" d="M 405.5,167.5 C 408.452,180.406 403.452,188.906 390.5,193C 378.858,194.682 370.524,190.348 365.5,180C 369.433,180.221 372.767,181.888 375.5,185C 385.205,189.093 393.538,187.26 400.5,179.5C 402.722,175.724 404.389,171.724 405.5,167.5 Z"/></g>
<g><path style="opacity:0.207" fill="#fff" d="M 165.5,191.5 C 167.017,191.511 168.184,192.177 169,193.5C 169.047,220.224 170.213,246.89 172.5,273.5C 158.239,275.371 143.906,276.371 129.5,276.5C 134.177,264.144 139.677,252.144 146,240.5C 152.587,224.245 159.087,207.912 165.5,191.5 Z M 161.5,216.5 C 155.108,233.779 147.775,250.613 139.5,267C 139.833,267.5 140.167,268 140.5,268.5C 149.112,267.529 157.779,267.196 166.5,267.5C 165.003,253.716 164.003,239.883 163.5,226C 163.485,222.424 162.818,219.258 161.5,216.5 Z"/></g>
<g><path style="opacity:0.43" fill="#fff" d="M 281.5,197.5 C 283.842,197.775 283.842,198.608 281.5,200C 272.772,207.114 263.606,213.614 254,219.5C 253.504,214.49 255.004,210.157 258.5,206.5C 266.159,203.284 273.826,200.284 281.5,197.5 Z"/></g>
<g><path style="opacity:1" fill="#fff" d="M 284.5,277.5 C 294.464,257.917 304.797,238.584 315.5,219.5C 319.262,218.59 320.929,220.256 320.5,224.5C 318.35,234.434 316.517,244.434 315,254.5C 314.333,260.833 314.333,267.167 315,273.5C 315.949,276.2 317.783,277.033 320.5,276C 323.656,273.843 326.489,271.343 329,268.5C 329.667,270.167 329.667,271.833 329,273.5C 326.46,275.705 324.293,278.205 322.5,281C 321.833,281.167 321.167,281.333 320.5,281.5C 311.394,278.282 307.728,271.782 309.5,262C 310.437,254.846 310.604,247.68 310,240.5C 307.909,239.5 306.243,240.167 305,242.5C 300.809,250.078 296.809,257.744 293,265.5C 290.39,269.742 287.557,273.742 284.5,277.5 Z"/></g>
<g><path style="opacity:1" fill="#fff" d="M 284.5,277.5 C 281.149,284.362 277.149,290.862 272.5,297C 265.699,300.309 261.199,298.476 259,291.5C 259.094,267.456 264.094,244.456 274,222.5C 275.11,220.963 276.61,220.297 278.5,220.5C 273.503,236.996 269.003,253.663 265,270.5C 264.333,277.167 264.333,283.833 265,290.5C 266.99,293.722 269.49,294.222 272.5,292C 276.866,287.412 280.866,282.579 284.5,277.5 Z"/></g>
<g><path style="opacity:0.217" fill="#fff" d="M 227.5,298.5 C 224.08,301.953 220.08,304.786 215.5,307C 204.786,308.312 198.62,303.478 197,292.5C 196.203,286.49 195.369,280.49 194.5,274.5C 197.446,272.221 200.112,269.554 202.5,266.5C 199.833,263.833 197.167,261.167 194.5,258.5C 210.6,248.61 226.934,238.943 243.5,229.5C 243.833,229.667 244.167,229.833 244.5,230C 239.063,249.852 234.896,270.019 232,290.5C 229.843,292.817 228.343,295.484 227.5,298.5 Z M 231.5,241.5 C 223.993,247.631 215.66,252.631 206.5,256.5C 206.167,257.167 205.833,257.833 205.5,258.5C 206.892,260.577 207.558,262.911 207.5,265.5C 206.28,268.942 204.78,272.275 203,275.5C 202.47,281.204 202.803,286.871 204,292.5C 205.162,296.668 207.829,299.002 212,299.5C 218.391,297.628 223.225,293.628 226.5,287.5C 229.172,272.132 231.839,256.799 234.5,241.5C 233.5,241.5 232.5,241.5 231.5,241.5 Z"/></g>
<g><path style="opacity:1" fill="#fff" d="M 379.5,243.5 C 380.776,244.386 380.776,245.386 379.5,246.5C 378.438,245.575 378.438,244.575 379.5,243.5 Z"/></g>
<g><path style="opacity:0.902" fill="#fff" d="M 376.5,247.5 C 377.713,248.497 377.546,249.497 376,250.5C 375.53,249.423 375.697,248.423 376.5,247.5 Z"/></g>
<g><path style="opacity:0.999" fill="#fff" d="M 475.5,246.5 C 477.723,248.441 479.056,250.941 479.5,254C 478.471,259.109 476.304,263.609 473,267.5C 473.929,264.265 474.929,260.932 476,257.5C 476.678,253.779 476.511,250.112 475.5,246.5 Z"/></g>
<g><path style="opacity:0.999" fill="#fff" d="M 411.5,261.5 C 412.903,260.069 414.569,258.902 416.5,258C 429.985,252.615 443.651,247.615 457.5,243C 461.833,242.333 466.167,242.333 470.5,243C 450.344,247.986 430.678,254.152 411.5,261.5 Z"/></g>
<g><path style="opacity:0.984" fill="white" d="M 372.5,252.5 C 373.713,253.497 373.546,254.497 372,255.5C 371.53,254.423 371.697,253.423 372.5,252.5 Z"/></g>
<g><path style="opacity:0.984" fill="white" d="M 369.5,256.5 C 370.525,256.897 370.692,257.563 370,258.5C 368.667,259.833 367.333,261.167 366,262.5C 365.333,261.833 365.333,261.167 366,260.5C 367.376,259.295 368.542,257.962 369.5,256.5 Z"/></g>
<g><path style="opacity:0.773" fill="white" d="M 194.5,262.5 C 195.496,262.414 196.329,262.748 197,263.5C 199.066,266.304 198.566,268.638 195.5,270.5C 194.52,267.914 194.187,265.247 194.5,262.5 Z"/></g>
<g><path style="opacity:0.984" fill="white" d="M 363.5,263.5 C 364.688,265.496 364.021,266.329 361.5,266C 362.381,265.292 363.047,264.458 363.5,263.5 Z"/></g>
<g><path style="opacity:0.19" fill="white" d="M 391.5,271.5 C 392.833,271.5 394.167,271.5 395.5,271.5C 394.341,312.291 387.675,352.124 375.5,391C 367.904,414.869 354.57,434.869 335.5,451C 310.642,465.518 285.308,466.185 259.5,453C 242.286,441.046 236.786,424.88 243,404.5C 244.431,398.39 246.931,397.89 250.5,403C 258.72,405.921 267.053,406.255 275.5,404C 281.557,401.216 287.224,397.883 292.5,394C 310.754,374.714 324.587,352.547 334,327.5C 335.972,320.279 337.306,312.945 338,305.5C 355.452,293.545 373.285,282.211 391.5,271.5 Z M 386.5,281.5 C 372.033,289.456 358.2,298.456 345,308.5C 343.508,314.801 342.175,321.135 341,327.5C 334.307,346.209 324.974,363.542 313,379.5C 305.79,389.71 296.957,398.21 286.5,405C 275.009,410.896 263.009,412.063 250.5,408.5C 249.558,408.608 248.725,408.941 248,409.5C 246.298,419.123 247.631,428.123 252,436.5C 259.802,445.611 269.636,451.445 281.5,454C 302.62,458.449 321.62,454.116 338.5,441C 350.046,429.378 359.213,416.211 366,401.5C 379.266,366.634 386.766,330.3 388.5,292.5C 388.489,288.435 387.822,284.768 386.5,281.5 Z"/></g>
<g><path style="opacity:0.194" fill="white" d="M 70.5,353.5 C 65.9996,356.478 61.3329,359.311 56.5,362C 44.539,370.252 33.7057,369.085 24,358.5C 15.2515,341.74 15.4182,325.073 24.5,308.5C 26.6922,307.141 28.3589,305.308 29.5,303C 41.0139,296.08 53.3472,291.08 66.5,288C 74.6279,286.958 82.6279,285.291 90.5,283C 101.472,281.566 112.472,280.899 123.5,281C 109.804,308.177 92.1374,332.344 70.5,353.5 Z M 107.5,286.5 C 85.0786,289.411 63.0786,294.577 41.5,302C 34.3078,305.192 29.1412,310.359 26,317.5C 24,327.5 24,337.5 26,347.5C 28.4016,355.068 33.5683,359.068 41.5,359.5C 48.4971,358.668 54.8304,356.168 60.5,352C 83.2389,334.3 100.572,312.467 112.5,286.5C 110.833,286.5 109.167,286.5 107.5,286.5 Z"/></g>
<g><path style="opacity:0.198" fill="white" d="M 330.5,310.5 C 331.533,315.032 331.366,319.698 330,324.5C 323.104,346.038 312.771,365.705 299,383.5C 291.823,391.504 283.323,397.67 273.5,402C 263.739,405.934 255.239,404.101 248,396.5C 247.333,395.5 247.333,394.5 248,393.5C 252.838,385.153 258.172,377.153 264,369.5C 275.194,356.973 287.027,345.14 299.5,334C 310.016,326.306 320.349,318.473 330.5,310.5 Z M 320.5,324.5 C 302.287,339.042 285.287,355.042 269.5,372.5C 264.344,378.652 260.01,385.318 256.5,392.5C 256.59,394.425 257.59,395.592 259.5,396C 261.333,396.167 263.167,396.333 265,396.5C 276.787,394.353 286.62,388.686 294.5,379.5C 308.287,363.055 318.287,344.721 324.5,324.5C 323.167,324.5 321.833,324.5 320.5,324.5 Z"/></g>
<g><path style="opacity:1" fill="white" d="M 186.5,318.5 C 189.588,318.197 191.254,319.53 191.5,322.5C 188.454,322.817 186.787,321.484 186.5,318.5 Z"/></g>
</svg>
